<?xml version="1.0" encoding="UTF-8" standalone="no"?>
<!-- Created with Inkscape (http://www.inkscape.org/) -->

<svg
   width="15.106061mm"
   height="8.4584017mm"
   viewBox="0 0 15.106061 8.4584016"
   version="1.1"
   id="svg1"
   inkscape:version="1.4.2 (f4327f4, 2025-05-13)"
   sodipodi:docname="logo.svg"
   xmlns:inkscape="http://www.inkscape.org/namespaces/inkscape"
   xmlns:sodipodi="http://sodipodi.sourceforge.net/DTD/sodipodi-0.dtd"
   xmlns="http://www.w3.org/2000/svg"
   xmlns:svg="http://www.w3.org/2000/svg">
  <sodipodi:namedview
     id="namedview1"
     pagecolor="#ffffff"
     bordercolor="#000000"
     borderopacity="0.25"
     inkscape:showpageshadow="2"
     inkscape:pageopacity="0.0"
     inkscape:pagecheckerboard="0"
     inkscape:deskcolor="#d1d1d1"
     inkscape:document-units="mm"
     inkscape:zoom="12.129854"
     inkscape:cx="47.692247"
     inkscape:cy="31.863533"
     inkscape:window-width="1920"
     inkscape:window-height="1111"
     inkscape:window-x="-9"
     inkscape:window-y="-9"
     inkscape:window-maximized="1"
     inkscape:current-layer="layer1" />
  <defs
     id="defs1" />
  <g
     inkscape:label="Layer 1"
     inkscape:groupmode="layer"
     id="layer1">
    <g
       id="g6"
       transform="translate(-66.440132,-10.209309)">
      <path
         style="font-size:8.46667px;font-family:HYPost-Light;-inkscape-font-specification:HYPost-Light;stroke-width:0.565"
         d="m 66.440132,10.209309 v 8.450133 h 1.471746 l 0.413411,-0.51263 h -1.289844 v -7.400068 h 0.84336 l 0.446484,-0.537435 z m 15.106061,8.458402 v -8.458402 h -1.471746 l -0.421679,0.537435 h 1.289844 v 7.400068 H 80.10752 l -0.454752,0.520899 z"
         id="text5"
         aria-label="[    ]" />
      <g
         id="g5"
         transform="translate(12.941872,0.18690481)">
        <path
           style="font-size:8.46667px;font-family:HYPost-Light;-inkscape-font-specification:HYPost-Light;stroke-width:0.264583"
           d="m 59.180304,11.068339 c -0.898481,0 -1.63711,0.355534 -2.215886,1.066601 -0.573264,0.705556 -0.859896,1.590257 -0.859896,2.654103 0,0.810287 0.192925,1.446941 0.578776,1.909962 0.385851,0.474045 0.926042,0.711068 1.620573,0.711068 0.418924,0 0.824068,-0.107487 1.215431,-0.322461 0.635911,-0.374401 1.084356,-0.963778 1.444721,-1.590196 0.385106,-0.669424 0.963597,-1.308954 1.249206,0.02242 l 0.08066,-0.190416 c -0.454017,-1.421746 -0.657057,-1.974239 -1.538422,-0.414439 -0.401798,0.610103 -0.800099,1.205828 -1.39326,1.643458 -0.336241,0.225998 -0.650434,0.338997 -0.942578,0.338997 -0.573264,0 -1.000456,-0.173633 -1.281576,-0.520898 -0.292145,-0.35829 -0.438217,-0.909506 -0.438217,-1.653647 0,-0.892969 0.237023,-1.639866 0.711068,-2.240691 0.474045,-0.584288 1.052822,-0.876432 1.736329,-0.876432 0.220487,0 0.416168,0.05788 0.587045,0.173632 0.159852,0.110243 0.316948,0.286632 0.471289,0.529167 l 0.496094,-0.314192 c -0.170877,-0.270096 -0.388607,-0.490582 -0.65319,-0.661459 -0.28112,-0.176389 -0.570508,-0.264583 -0.868165,-0.264583 z m 1.951303,0.140559 -0.173633,0.520899 h 1.769402 v 2.596225 c 0,0.628386 -0.146072,1.154797 -0.438217,1.579232 -0.292144,0.418924 -0.735872,0.746897 -1.331185,0.98392 l 0.198438,0.545703 c 0.677995,-0.214974 1.209918,-0.600825 1.595769,-1.157552 0.385851,-0.551215 0.578776,-1.204406 0.578776,-1.959571 v -3.108856 z"
           id="text3"
           aria-label="CJ"
           sodipodi:nodetypes="ccscscsccccscscsccccscccsccccsccc" />
        <path
           id="path4"
           style="font-size:8.46667px;font-family:HYPost-Light;-inkscape-font-specification:HYPost-Light;stroke-width:0.264583"
           d="m 64.672048,15.497416 c 0.375466,-0.675208 0.959741,-1.308954 1.24535,0.02242 l 0.08066,-0.190416 c -0.454017,-1.421746 -0.657057,-1.974239 -1.538422,-0.414439 -0.169315,0.333784 -0.311444,0.662785 -0.311444,0.662785 l 0.208556,0.582435 m -0.208556,-0.582435 c 0,0 -0.52668,1.115164 -0.759263,1.285297 -0.15462,0.113103 -0.367619,-0.02325 -0.489943,-0.593464 l -0.08066,0.190416 c 0.454017,1.421746 0.820615,1.070603 1.538422,-0.299814" />
        <path
           style="font-size:8.46667px;font-family:HYPost-Light;-inkscape-font-specification:HYPost-Light;stroke-width:0.264583"
           d="m 64.668192,15.497416 c 0,0 -0.360365,0.626418 0,0"
           id="path3" />
        <path
           style="font-size:8.46667px;font-family:HYPost-Light;-inkscape-font-specification:HYPost-Light;stroke-width:0.264583"
           d="m 64.148192,15.577766 0.26,-0.04018 0.26,-0.04017"
           id="text3-2" />
      </g>
    </g>
  </g>
</svg>
